 <svg xmlns="http://www.w3.org/2000/svg" width="200" height="200" version="1.1">
      <circle cx="86.86" cy="84.59" r="4.44" fill="#ffcc00" />
      <circle cx="104.19" cy="75.81" r="2.09" fill="#ffcc00" />
      <circle cx="112.90" cy="88.28" r="3.49" fill="#ffcc00" />
      <circle cx="106.98" cy="109.42" r="3" fill="#ffcc00" />
      <circle cx="122.09" cy="139.03" r="4.66" fill="#ffcc00" />
      <circle cx="93.29" cy="144.14" r="3.14" fill="#ffcc00" />
      <circle cx="99.34" cy="117.25" r="3.41" fill="#ffcc00" />
      <circle cx="138.76" cy="74.73" r="1.09" fill="#ffcc00" />
      <circle cx="142.55" cy="79.05" r="1.32" fill="#ffcc00" />
      <circle cx="142.31" cy="90.62" r="1.86" fill="#ffcc00" />
      <circle cx="139.82" cy="101.75" r="1.83" fill="#ffcc00" />
      <circle cx="136.11" cy="104.34" r="1.22" fill="#ffcc00" />

      <line x1="86.86" y1="84.59" x2="104.19" y2="75.81" stroke="#e5e7eb" strokeWidth="0.8" />
      <line x1="104.19" y1="75.81" x2="112.90" y2="88.28" stroke="#e5e7eb" strokeWidth="0.8" />
      <line x1="112.90" y1="88.28" x2="106.98" y2="109.42" stroke="#e5e7eb" strokeWidth="0.8" />
      <line x1="106.98" y1="109.42" x2="122.09" y2="139.03" stroke="#e5e7eb" strokeWidth="0.8" />
      <line x1="122.09" y1="139.03" x2="93.29" y2="144.14" stroke="#e5e7eb" strokeWidth="0.8" />
      <line x1="93.29" y1="144.14" x2="99.34" y2="117.25" stroke="#e5e7eb" strokeWidth="0.8" />
      <line x1="99.34" y1="117.25" x2="86.86" y2="84.59" stroke="#e5e7eb" strokeWidth="0.8" />
      <line x1="112.90" y1="88.28" x2="143.39" y2="85.84" stroke="#e5e7eb" strokeWidth="0.8" />
      <line x1="143.39" y1="85.84" x2="138.76" y2="74.73" stroke="#e5e7eb" strokeWidth="0.8" />
      <line x1="138.76" y1="74.73" x2="142.55" y2="79.05" stroke="#e5e7eb" strokeWidth="0.8" />
      <line x1="142.55" y1="79.05" x2="142.31" y2="90.62" stroke="#e5e7eb" strokeWidth="0.8" />
      <line x1="142.31" y1="90.62" x2="139.82" y2="101.75" stroke="#e5e7eb" strokeWidth="0.8" />
      <line x1="139.82" y1="101.75" x2="136.11" y2="104.34" stroke="#e5e7eb" strokeWidth="0.8" />
    </svg>