<svg xmlns="http://www.w3.org/2000/svg" viewBox="0 0 100 100" width="200" height="200">
  <!-- Stars -->
  <circle cx="30" cy="50" r="1" fill="white" />
  <circle cx="50" cy="70" r="1" fill="white" />
  <circle cx="70" cy="50" r="1" fill="white" />
  <circle cx="80" cy="30" r="1" fill="white" />
  <circle cx="60" cy="10" r="1" fill="white" />
  <circle cx="40" cy="30" r="1" fill="white" />
  <circle cx="50" cy="50" r="1" fill="white" />
  <circle cx="60" cy="30" r="1" fill="white" />
  <circle cx="70" cy="10" r="1" fill="white" />

  <!-- Constellation lines -->
  <line x1="30" y1="50" x2="50" y2="70" stroke="white" />
  <line x1="50" y1="70" x2="70" y2="50" stroke="white" />
  <line x1="70" y1="50" x2="80" y2="30" stroke="white" />
  <line x1="80" y1="30" x2="60" y2="10" stroke="white" />
  <line x1="60" y1="10" x2="40" y2="30" stroke="white" />
  <line x1="40" y1="30" x2="50" y2="50" stroke="white" />
  <line x1="50" y1="50" x2="60" y2="30" stroke="white" />
  <line x1="60" y1="30" x2="70" y2="10" stroke="white" />
</svg>
